<?xml version="1.0" ?>
<!-- Uploaded to: SVG Repo, www.svgrepo.com, Generator: SVG Repo Mixer Tools -->
<svg width="800px" height="800px" viewBox="0 0 512 512" baseProfile="tiny" overflow="visible" version="1.1" xml:space="preserve" xmlns="http://www.w3.org/2000/svg" xmlns:xlink="http://www.w3.org/1999/xlink">
<g id="Layer_1"/>
<g id="Layer_2"/>
<g id="Layer_3">
<g>
<circle cx="253.721" cy="256" fill="#ADC0ED" r="246.221"/>
<circle cx="258.279" cy="256" fill="#85A4E4" r="153.624"/>
<path d="M258.279,9.779c-3.32,0-6.62,0.085-9.908,0.215C379.759,15.197,484.683,123.337,484.683,256    S379.759,496.803,248.371,502.005c3.288,0.13,6.588,0.215,9.908,0.215C394.263,502.221,504.5,391.984,504.5,256    S394.263,9.779,258.279,9.779z" fill="#99B2E9"/>
<path d="M258.279,102.376c-3.33,0-6.631,0.118-9.908,0.327c80.225,5.108,143.715,71.782,143.715,153.297    s-63.49,148.188-143.715,153.297c3.277,0.209,6.578,0.327,9.908,0.327c84.844,0,153.623-68.78,153.623-153.624    S343.123,102.376,258.279,102.376z" fill="#7293DF"/>
<g>
<path d="M231.028,277.831l45.348,38.056c2.096,1.759,5.221,1.486,6.98-0.61l45.038-53.668     c82.52-98.331,100.387-167.752,71.15-192.287l0,0l-169.126,201.53C228.659,272.947,228.932,276.072,231.028,277.831z" fill="#5C85DA"/>
<path d="M104.965,447.217L104.965,447.217c8.633,7.245,21.497,6.055,28.574-2.645l120.181-147.735l-26.469-22.213     l-124.64,143.993C95.272,427.096,96.332,439.971,104.965,447.217z" fill="#5C85DA"/>
<path d="M227.252,274.624l-4.169,4.816l20.729,17.397L123.631,444.572c-2.826,3.474-6.579,5.729-10.613,6.749     c7.351,1.857,15.431-0.491,20.521-6.749l120.181-147.735L227.252,274.624z" fill="#4677D5"/>
</g>
<path d="M399.543,69.322L399.543,69.322l-4.664,5.557c21.291,28.448,0.58,95.008-76.394,186.73l-44.129,52.584    l2.019,1.694c2.096,1.759,5.221,1.486,6.98-0.61l45.039-53.668C410.914,163.278,428.78,93.858,399.543,69.322z" fill="#4677D5"/>
<path d="M430.519,409.004L183.847,178.215l17.866-18.017c4.853-4.893,4.819-12.794-0.074-17.646l-27.601-27.37l0,0    l-43.485-43.121c-2.914-2.889-7.62-2.87-10.509,0.044c-2.89,2.914-2.871,7.62,0.044,10.509l43.486,43.122l-12.224,12.327    l-43.485-43.12c-2.913-2.888-7.619-2.87-10.509,0.044c-2.89,2.914-2.87,7.62,0.044,10.509l43.486,43.121l-12.224,12.327    l-43.485-43.12c-2.913-2.888-7.619-2.87-10.509,0.044c-2.89,2.914-2.87,7.62,0.044,10.509l43.486,43.121l-12.224,12.327    l-43.485-43.12c-2.914-2.889-7.62-2.87-10.509,0.044c-2.89,2.914-2.87,7.62,0.044,10.509l45.915,45.53    c0.001,0.001,0.002,0.002,0.003,0.003l25.169,24.958c4.893,4.853,12.793,4.819,17.646-0.074l17.866-18.017l232.854,244.724    c10.778,11.327,28.783,11.513,39.792,0.41l0,0C442.273,437.689,441.936,419.686,430.519,409.004z" fill="#5C85DA"/>
<g>
<path d="M75.265,117.823l43.485,43.12l4.913-4.954l-38.489-38.167c-2.809-2.785-7.28-2.859-10.187-0.25     C75.08,117.657,75.176,117.734,75.265,117.823z" fill="#4677D5"/>
<path d="M52.576,140.704l43.485,43.12l4.913-4.954l-38.489-38.167c-2.81-2.786-7.28-2.859-10.187-0.25     C52.39,140.538,52.486,140.615,52.576,140.704z" fill="#4677D5"/>
<path d="M97.955,94.942l43.485,43.12l4.913-4.954l-38.49-38.167c-2.809-2.785-7.28-2.859-10.187-0.25     C97.769,94.776,97.865,94.853,97.955,94.942z" fill="#4677D5"/>
<path d="M148.709,203.657l-17.866,18.017c-1.155,1.164-2.485,2.045-3.903,2.658     c4.576,1.978,10.088,1.096,13.811-2.658l12.809-12.918L148.709,203.657z" fill="#4677D5"/>
<path d="M430.519,409.004L183.847,178.215l17.866-18.017c4.853-4.893,4.819-12.794-0.074-17.646l-27.601-27.37     l-43.485-43.121c-2.81-2.786-7.281-2.859-10.187-0.25c0.093,0.084,0.189,0.161,0.279,0.25l43.485,43.121l27.601,27.37     c4.893,4.853,4.927,12.753,0.074,17.646l-17.866,18.017l246.672,230.789c11.417,10.682,11.754,28.685,0.745,39.787     c-4.164,4.199-9.33,6.781-14.727,7.758c8.667,1.56,17.943-1.01,24.635-7.758C442.273,437.689,441.936,419.686,430.519,409.004z" fill="#4677D5"/>
</g>
</g>
</g>
<g id="Layer_4"/>
<g id="Layer_5"/>
<g id="Layer_6"/>
<g id="Layer_7"/>
<g id="Layer_8"/>
<g id="Layer_9"/>
<g id="Layer_10"/>
<g id="Layer_11"/>
<g id="Layer_12"/>
<g id="Layer_13"/>
<g id="Layer_14"/>
<g id="Layer_15"/>
<g id="Layer_16"/>
<g id="Layer_17"/>
<g id="Layer_18"/>
<g id="Layer_19"/>
<g id="Layer_20"/>
<g id="Layer_21"/>
<g id="Layer_22"/>
<g id="Layer_23"/>
<g id="Layer_24"/>
<g id="Layer_25"/>
<g id="Layer_26"/>
<g id="Layer_27"/>
<g id="Layer_28"/>
<g id="Layer_29"/>
<g id="Layer_30"/>
<g id="Layer_31"/>
<g id="Layer_32"/>
<g id="Layer_33"/>
<g id="Layer_34"/>
<g id="Layer_35"/>
<g id="Layer_36"/>
<g id="Layer_37"/>
<g id="Layer_38"/>
<g id="Layer_39"/>
<g id="Layer_40"/>
<g id="Layer_41"/>
<g id="Layer_42"/>
<g id="Layer_43"/>
<g id="Layer_44"/>
<g id="Layer_45"/>
<g id="Layer_46"/>
<g id="Layer_47"/>
<g id="Layer_48"/>
<g id="Layer_49"/>
<g id="Layer_50">
<g>
<g>
<path d="M256.735,512c-68.379,0-132.666-26.629-181.019-74.981S0.735,324.379,0.735,256S27.364,123.334,75.716,74.981     S188.356,0,256.735,0c68.383,0,132.671,26.629,181.022,74.981c48.35,48.352,74.978,112.639,74.978,181.019     c0,64.848-24.294,126.711-68.405,174.194c-1.909,2.056-4.806,2.874-7.508,2.12c-2.702-0.753-4.759-2.95-5.33-5.696     c-0.856-4.117-2.946-7.825-6.042-10.723L173.97,180.617c-1.479-1.385-2.337-3.31-2.375-5.336s0.746-3.981,2.173-5.421     l12.82-12.931c0.959-0.967,1.483-2.249,1.478-3.611c-0.006-1.361-0.539-2.637-1.503-3.593l-17.631-17.481l-58.14,58.62     l17.633,17.479c0.964,0.956,2.238,1.481,3.59,1.481c0.007,0,0.014,0,0.021,0c1.359-0.005,2.636-0.54,3.594-1.507l12.819-12.929     c1.427-1.44,3.376-2.233,5.403-2.22c2.026,0.021,3.959,0.861,5.356,2.33l237.39,249.49c2.312,2.426,5.075,4.195,8.208,5.254     c2.658,0.898,4.593,3.206,5.014,5.98s-0.742,5.552-3.014,7.198C362.952,495.202,311.058,512,256.735,512z M256.735,15     c-132.888,0-241,108.112-241,241s108.112,241,241,241c47.239,0,92.522-13.49,131.69-39.123c-0.938-0.799-1.837-1.647-2.69-2.543     l-232.07-243.9l-7.384,7.446c-3.781,3.813-8.819,5.924-14.187,5.945c-0.026,0-0.054,0-0.081,0c-5.336,0-10.358-2.068-14.15-5.831     l-22.958-22.757c-1.413-1.4-2.212-3.305-2.221-5.295c-0.009-1.989,0.773-3.901,2.175-5.313l68.701-69.27     c2.915-2.938,7.66-2.961,10.603-0.048l22.963,22.763c3.808,3.777,5.918,8.812,5.94,14.18c0.023,5.37-2.046,10.427-5.826,14.237     l-7.384,7.447l245.843,230.005c2.047,1.915,3.84,4.037,5.358,6.326c36.633-43.424,56.678-98.115,56.678-155.27     C497.735,123.112,389.623,15,256.735,15z"/>
</g>
<g>
<path d="M256.735,418.55c-29.389,0-58.182-7.926-83.268-22.922c-3.556-2.125-4.715-6.73-2.59-10.285     c2.125-3.557,6.732-4.714,10.285-2.59c22.761,13.605,48.894,20.797,75.572,20.797c22.71,0,45.086-5.227,65.278-15.184     L153.665,211.434l-7.384,7.446c-3.782,3.813-8.82,5.924-14.188,5.945c-5.413,0.021-10.42-2.051-14.23-5.831l-3.149-3.123     c-3.666,12.982-5.519,26.434-5.519,40.129c0,39.326,15.289,76.323,43.052,104.175c2.925,2.934,2.917,7.683-0.017,10.606     c-2.935,2.925-7.684,2.916-10.606-0.017C111.039,340.081,94.195,299.324,94.195,256c0-19.494,3.412-38.546,10.141-56.626     c0.889-2.388,2.929-4.161,5.417-4.708c2.487-0.551,5.083,0.206,6.893,1.998l11.78,11.68c0.969,0.961,2.244,1.462,3.61,1.481     c1.358-0.005,2.636-0.541,3.594-1.507l12.819-12.929c1.427-1.44,3.376-2.233,5.403-2.22c2.026,0.021,3.959,0.861,5.356,2.33     l180.46,189.66c1.584,1.665,2.317,3.965,1.99,6.239c-0.328,2.274-1.681,4.273-3.67,5.424     C313.4,411.037,285.303,418.55,256.735,418.55z"/>
</g>
<g>
<path d="M373.975,364.97c-1.898,0-3.731-0.72-5.124-2.023L173.97,180.616c-1.48-1.385-2.337-3.31-2.375-5.336     s0.746-3.982,2.173-5.421l12.82-12.93c0.959-0.967,1.483-2.249,1.478-3.611c-0.006-1.361-0.539-2.637-1.503-3.593l-18.989-18.83     c-1.613-1.6-2.415-3.846-2.178-6.106c0.236-2.261,1.486-4.292,3.396-5.523c26.211-16.889,56.621-25.815,87.942-25.815     c34.221,0,66.947,10.504,94.642,30.376c3.366,2.415,4.137,7.101,1.722,10.466c-2.416,3.367-7.104,4.136-10.466,1.722     c-25.13-18.032-54.833-27.563-85.897-27.563c-25.273,0-49.891,6.4-71.751,18.585l12.142,12.04     c3.808,3.776,5.918,8.812,5.94,14.179c0.023,5.37-2.046,10.427-5.826,14.237l-7.384,7.446l183.402,171.591     c20.06-25.798,31.026-57.649,31.026-90.528c0-27.466-7.594-54.263-21.959-77.496c-2.179-3.523-1.089-8.145,2.435-10.323     c3.522-2.179,8.145-1.088,10.323,2.435c15.833,25.604,24.201,55.131,24.201,85.385c0,39.1-14.078,76.88-39.642,106.381     c-1.335,1.541-3.24,2.472-5.275,2.578C374.236,364.967,374.105,364.97,373.975,364.97z"/>
</g>
<g>
<g>
<path d="M302.905,298.47c-1.897,0-3.73-0.72-5.124-2.023l-51.01-47.72c-2.91-2.722-3.183-7.245-0.621-10.298l147.42-175.66      c1.279-1.524,3.111-2.478,5.093-2.65c1.985-0.167,3.952,0.448,5.475,1.728c8.322,6.987,17.783,20.687,15.597,46.271      c-1.686,19.725-9.909,43.287-24.438,70.024l0,0c-14.732,27.121-35.608,56.843-62.047,88.341l-24.599,29.31      c-1.324,1.577-3.238,2.541-5.294,2.665C303.206,298.465,303.054,298.47,302.905,298.47z M262.208,242.628l40.04,37.458      l19.511-23.247c25.795-30.731,46.101-59.618,60.354-85.858c0.001,0,0.001-0.001,0.001-0.001      c22.437-41.288,28.586-74.717,17.395-91.954L262.208,242.628z"/>
</g>
<g>
<path d="M115.081,461.278c-6.542,0-12.812-2.276-17.897-6.543c-5.781-4.858-9.292-11.667-9.891-19.175      c-0.595-7.465,1.77-14.69,6.658-20.346l125.273-144.714c1.385-1.599,3.38-2.539,5.495-2.589c2.11-0.03,4.152,0.796,5.609,2.329      l24.24,25.48c2.602,2.733,2.766,6.974,0.385,9.901l-118.291,145.43c-4.718,5.801-11.424,9.387-18.885,10.097      C116.875,461.235,115.975,461.278,115.081,461.278z M225.157,286.566L105.295,425.029c-2.239,2.59-3.323,5.908-3.05,9.34      c0.276,3.474,1.904,6.628,4.584,8.88c2.672,2.243,6.056,3.305,9.527,2.968c3.428-0.326,6.507-1.97,8.669-4.629l114.126-140.31      L225.157,286.566z"/>
</g>
</g>
<g>
<g>
<path d="M168.887,129.136c-1.909,0-3.818-0.725-5.281-2.175l-46.34-45.952c-2.941-2.916-2.961-7.665-0.044-10.606      c2.916-2.94,7.665-2.96,10.606-0.044l46.34,45.952c2.941,2.916,2.961,7.665,0.044,10.606      C172.747,128.396,170.817,129.136,168.887,129.136z"/>
</g>
<g>
<path d="M145.988,152.228c-1.909,0-3.818-0.725-5.281-2.175l-46.34-45.951c-2.94-2.916-2.961-7.665-0.044-10.606      c2.917-2.94,7.666-2.959,10.606-0.044l46.34,45.951c2.94,2.916,2.961,7.665,0.044,10.606      C149.847,151.487,147.917,152.228,145.988,152.228z"/>
</g>
<g>
<path d="M123.088,175.32c-1.909,0-3.818-0.725-5.281-2.175l-46.34-45.951c-2.94-2.916-2.961-7.665-0.044-10.606      c2.917-2.94,7.666-2.959,10.606-0.044l46.34,45.951c2.94,2.916,2.961,7.665,0.044,10.606      C126.948,174.58,125.018,175.32,123.088,175.32z"/>
</g>
<g>
<path d="M100.189,198.413c-1.909,0-3.818-0.725-5.281-2.175l-46.34-45.951c-2.94-2.916-2.961-7.665-0.044-10.606      c2.916-2.94,7.665-2.96,10.606-0.044l46.34,45.951c2.94,2.916,2.961,7.665,0.044,10.606      C104.048,197.673,102.119,198.413,100.189,198.413z"/>
</g>
<g>
<path d="M411.367,466.332c-3.826,0-7.675-0.616-11.389-1.886c-3.919-1.34-6.01-5.604-4.67-9.523s5.599-6.008,9.523-4.67      c7.488,2.561,15.601,0.662,21.166-4.953c4.868-4.91,6.924-11.888,5.497-18.666c-0.853-4.054,1.742-8.03,5.796-8.884      c4.049-0.854,8.031,1.741,8.884,5.796c2.467,11.731-1.093,23.812-9.523,32.314C429.912,462.659,420.707,466.331,411.367,466.332      z"/>
</g>
</g>
</g>
</g>
</svg>