<?xml version="1.0" encoding="UTF-8"?>
<svg id="Layer_2" data-name="Layer 2" xmlns="http://www.w3.org/2000/svg" viewBox="0 0 519.08 378.35">
  <defs>
    <style>
      .cls-1 {
        fill: #000;
      }
    </style>
  </defs>
  <g id="Layer_1-2" data-name="Layer 1">
    <g>
      <g>
        <path class="cls-1" d="M42.11,211.8c-4.91-3.56-6.28-9.05-6.28-18.71v-2.13h18.55v.3c0,4.78.64,6.61,3.09,8.03,2.46,1.42,8.19,2.03,20.83,2.03,14.55,0,18.82-.71,21.1-1.93,2.46-1.32,3.09-2.85,3.09-6.61,0-3.46-.82-5.39-3-6.61-2.18-1.22-6.73-1.42-29.65-2.03-14.37-.41-21.92-1.83-26.46-4.98-5-3.46-6.91-9.15-6.91-19.42s2.73-15.76,7.73-19.11c5.46-3.66,14.91-5.29,33.28-5.29,16.55,0,28.19,1.32,34.29,5.69,5.09,3.66,6.09,9.76,6.09,18.3v1.42h-18.55v-.1c0-3.66-.36-5.9-2.82-7.22-2.64-1.42-7.64-1.93-19.28-1.93-12.82,0-17.19.51-19.46,1.73-2.45,1.32-3,3.36-3,6.2,0,3.66,1.18,5.19,2.82,6.1,1.82,1.02,4.82,1.42,22.28,1.83,19.82.41,28.74,1.53,34.1,5.19,5.09,3.46,6.73,9.86,6.73,19.52,0,10.37-2.36,16.17-7.37,19.72-5,3.56-13.64,5.69-35.56,5.69s-29.92-1.52-35.65-5.69Z"/>
        <path class="cls-1" d="M138.14,198.58v-25.12h-10.46v-14.44h10.46v-14.03h17.28v14.03h22.55v14.44h-22.55v22.57c0,4.37,1,5.19,5.09,5.19h17.73v14.74h-23.56c-11.82,0-16.55-3.97-16.55-17.39Z"/>
        <path class="cls-1" d="M185.7,198.89c0-14.13,7-17.79,26.92-17.79h19.64v-1.53c0-6.51-1.73-8.24-13.73-8.24s-13.73,1.53-13.73,5.59v.71h-17.37v-1.53c0-12.91,6.28-18,30.83-18,26.1,0,30.92,5.49,30.92,22.47v35.38h-16.92v-6.2h-.27c-2.73,5.19-9.09,7.12-20.92,7.12-18.73,0-25.37-5.19-25.37-18ZM214.17,203.16c16.1,0,18.28-1.53,18.28-8.34v-2.34h-18.28c-9.64,0-11.55,1.02-11.55,5.19,0,4.37,2.27,5.49,11.55,5.49Z"/>
        <path class="cls-1" d="M261.45,159.03h17.28v9.76h.09c3.73-7.52,8.91-10.17,19.55-10.17h10.91v15.15h-11.37c-15.28,0-19.19,3.25-19.19,16.57v25.62h-17.28v-56.94Z"/>
        <path class="cls-1" d="M324.84,198.58v-25.12h-10.46v-14.44h10.46v-14.03h17.28v14.03h22.55v14.44h-22.55v22.57c0,4.37,1,5.19,5.09,5.19h17.73v14.74h-23.56c-11.82,0-16.55-3.97-16.55-17.39Z"/>
        <path class="cls-1" d="M373.85,189.74v-30.71h17.28v28.77c0,11.29,1.73,13.22,14.82,13.22,10.82,0,15.1-1.12,15.1-13.62v-28.37h17.28v56.94h-17.28v-8.13h-.18c-3,6.2-8.82,8.95-20.55,8.95-18.73,0-26.46-6.41-26.46-27.05Z"/>
        <path class="cls-1" d="M451.06,159.03h17.28v8.13h.18c3.55-6.2,7.73-9.05,22.55-9.05,22.92,0,28.01,6.81,28.01,29.38s-5.09,29.39-27.92,29.39c-14.91,0-19.1-2.85-22.65-9.05h-.18v28.67h-17.28v-77.48ZM484.7,201.63c14.82,0,16.55-1.83,16.55-14.13s-1.73-14.13-16.55-14.13-16.37,2.03-16.37,12.51v3.15c0,10.57,2.09,12.61,16.37,12.61Z"/>
        <path class="cls-1" d="M42.11,308.27c-4.91-3.56-6.28-9.05-6.28-18.71v-2.13h18.55v.3c0,4.78.64,6.61,3.09,8.03,2.46,1.42,8.19,2.03,20.83,2.03,14.55,0,18.82-.71,21.1-1.93,2.46-1.32,3.09-2.85,3.09-6.61,0-3.46-.82-5.39-3-6.61-2.18-1.22-6.73-1.42-29.65-2.03-14.37-.41-21.92-1.83-26.46-4.98-5-3.46-6.91-9.15-6.91-19.42s2.73-15.76,7.73-19.11c5.46-3.66,14.91-5.29,33.28-5.29,16.55,0,28.19,1.32,34.29,5.69,5.09,3.66,6.09,9.76,6.09,18.3v1.42h-18.55v-.1c0-3.66-.36-5.9-2.82-7.22-2.64-1.42-7.64-1.93-19.28-1.93-12.82,0-17.19.51-19.46,1.73-2.45,1.32-3,3.36-3,6.2,0,3.66,1.18,5.19,2.82,6.1,1.82,1.02,4.82,1.42,22.28,1.83,19.82.41,28.74,1.53,34.1,5.19,5.09,3.46,6.73,9.86,6.73,19.52,0,10.37-2.36,16.17-7.37,19.72-5,3.56-13.64,5.69-35.56,5.69s-29.92-1.52-35.65-5.69Z"/>
        <path class="cls-1" d="M133.41,317.42h10.73c4.55,0,6-.51,7.91-3.97l-27.92-57.96h19.46l17.37,39.76h.36l17.28-39.76h18.91l-29.37,61.72c-5.73,12-9.82,15.76-21.1,15.76h-13.64v-15.56Z"/>
        <path class="cls-1" d="M204.44,255.5h17.28v9.76h.09c3.73-7.52,8.91-10.17,19.55-10.17h10.91v15.15h-11.37c-15.28,0-19.19,3.25-19.19,16.57v25.62h-17.28v-56.94Z"/>
        <path class="cls-1" d="M261.27,233.33h17.28v14.85h-17.28v-14.85ZM261.27,255.5h17.28v56.94h-17.28v-56.94Z"/>
        <path class="cls-1" d="M289.19,295.36c0-14.13,7-17.79,26.92-17.79h19.64v-1.53c0-6.51-1.73-8.24-13.73-8.24s-13.73,1.53-13.73,5.59v.71h-17.37v-1.53c0-12.91,6.28-18,30.83-18,26.1,0,30.92,5.49,30.92,22.47v35.38h-16.92v-6.2h-.27c-2.73,5.19-9.09,7.12-20.92,7.12-18.73,0-25.37-5.19-25.37-18ZM317.65,299.63c16.1,0,18.28-1.53,18.28-8.34v-2.34h-18.28c-9.64,0-11.55,1.02-11.55,5.19,0,4.37,2.27,5.49,11.55,5.49Z"/>
      </g>
      <polygon class="cls-1" points="438.33 378.35 133.33 378.35 133.33 359.06 421.07 359.06 421.07 240.43 438.33 240.43 438.33 378.35"/>
      <polygon class="cls-1" points="17.26 331.97 0 331.97 0 0 438.33 0 438.33 134.57 421.07 134.57 421.07 19.29 17.26 19.29 17.26 331.97"/>
    </g>
  </g>
</svg>