<?xml version="1.0" encoding="UTF-8"?>
<svg id="Layer_2" data-name="Layer 2" xmlns="http://www.w3.org/2000/svg" viewBox="0 0 236.67 183.62">
  <defs>
    <style>
      .cls-1 {
        fill: #000;
      }
    </style>
  </defs>
  <g id="Layer_1-2" data-name="Layer 1">
    <g>
      <polygon class="cls-1" points="15.77 35.01 37.74 35.01 37.74 58.63 50.29 58.63 50.29 .99 37.74 .99 37.74 23.95 15.77 23.95 15.77 .99 3.22 .99 3.22 58.63 15.77 58.63 15.77 35.01"/>
      <path class="cls-1" d="M90.76.99h-15.53l-18.99,57.64h12.72l4.13-13.71h19.24l4.13,13.71h13.05L90.76.99ZM76.06,34.27l6.36-21.88h.41l6.44,21.88h-13.21Z"/>
      <path class="cls-1" d="M136.26,59.62c10.57,0,17.42-5.04,21.72-13.79l-10.24-5.95c-1.73,4.71-5.29,8.59-11.48,8.59-7.35,0-12.22-4.96-12.22-14.04v-9.25c0-9.08,4.87-14.04,12.22-14.04,6.19,0,9.25,3.22,10.74,8.01l10.82-5.62c-4.21-9.25-10.98-13.54-21.55-13.54-15.53,0-25.52,10.74-25.52,30.22s9.99,29.4,25.52,29.4Z"/>
      <polygon class="cls-1" points="177.21 42.61 184.73 33.53 200.01 58.63 214.79 58.63 193.65 24.69 213.05 .99 198.85 .99 185.89 17.26 177.71 28.41 177.21 28.41 177.21 .99 164.66 .99 164.66 58.63 177.21 58.63 177.21 42.61"/>
      <polygon class="cls-1" points="15.77 97.01 37.66 97.01 37.66 85.95 15.77 85.95 15.77 74.14 41.46 74.14 41.46 62.99 3.22 62.99 3.22 120.63 15.77 120.63 15.77 97.01"/>
      <path class="cls-1" d="M70.11,121.62c15.28,0,25.35-10.24,25.35-29.81s-10.07-29.81-25.35-29.81-25.35,10.24-25.35,29.81,10.08,29.81,25.35,29.81ZM58.05,87.52c0-9.17,4.54-14.37,12.06-14.37s12.06,5.2,12.06,14.37v8.59c0,9.17-4.54,14.37-12.06,14.37s-12.06-5.2-12.06-14.37v-8.59Z"/>
      <path class="cls-1" d="M148.64,81.41c0-10.98-6.77-18.42-17.42-18.42h-27.33v57.64h12.55v-21.14h9l10.08,21.14h13.96l-11.31-22.63c7.02-2.64,10.49-8.84,10.49-16.6ZM135.68,83.22c0,3.72-2.31,5.7-6.03,5.7h-13.21v-15.03h13.21c3.72,0,6.03,1.98,6.03,5.7v3.63Z"/>
      <path class="cls-1" d="M26.84,147.78l-5.7-.91c-4.79-.74-6.85-2.23-6.85-6.19,0-3.47,2.72-5.62,8.34-5.62,5.95,0,9.66,2.23,12.39,5.45l8.34-8.42c-4.71-5.2-11.31-8.09-19.98-8.09-13.54,0-21.64,7.18-21.64,17.51,0,9.66,5.53,15.61,17.67,17.18l5.7.74c5.37.74,6.69,3.06,6.69,6.19,0,4.21-2.97,6.94-9.08,6.94-5.62,0-10.57-2.23-14.45-6.61l-8.26,8.34c4.96,5.45,11.81,9.33,21.88,9.33,14.37,0,22.46-7.68,22.46-18.75,0-9.91-5.7-15.19-17.51-17.09Z"/>
      <polygon class="cls-1" points="70.36 147.95 70.19 147.95 57.81 124.99 43.77 124.99 63.5 160.09 63.5 182.63 76.14 182.63 76.14 160.01 95.88 124.99 82.25 124.99 70.36 147.95"/>
      <path class="cls-1" d="M145.67,143.41c0-10.98-6.77-18.42-17.42-18.42h-27.33v57.64h12.55v-21.14h9l10.08,21.14h13.96l-11.31-22.63c7.02-2.64,10.49-8.84,10.49-16.6ZM132.71,145.22c0,3.72-2.31,5.7-6.03,5.7h-13.21v-15.03h13.21c3.71,0,6.03,1.98,6.03,5.7v3.63Z"/>
      <polygon class="cls-1" points="152.28 134.98 159.71 134.98 159.71 172.64 152.28 172.64 152.28 182.63 179.69 182.63 179.69 172.64 172.26 172.64 172.26 134.98 179.69 134.98 179.69 124.99 152.28 124.99 152.28 134.98"/>
      <path class="cls-1" d="M217.93,124.99h-15.53l-18.99,57.64h12.72l4.13-13.71h19.24l4.13,13.71h13.05l-18.75-57.64ZM203.23,158.27l6.36-21.88h.41l6.44,21.88h-13.21Z"/>
    </g>
  </g>
</svg>