<?xml version="1.0" encoding="UTF-8"?>
<svg id="Layer_1" data-name="Layer 1" xmlns="http://www.w3.org/2000/svg" viewBox="0 0 273.88 221.87">
  <defs>
    <style>
      .cls-1 {
        fill: #000;
      }
    </style>
  </defs>
  <path class="cls-1" d="M24.38,189.42h-1.49c-2.01,0-3.78.36-5.32,1.09-1.54.73-2.73,1.76-3.58,3.1-.84,1.34-1.27,2.89-1.27,4.64v.03c0,1.73.41,3.26,1.22,4.58s1.96,2.34,3.44,3.07c1.48.73,3.19,1.09,5.13,1.09h4.97v-19.22h-3.1v1.62ZM24.38,203.93h-2.15c-1.27,0-2.4-.23-3.39-.7-.99-.46-1.76-1.12-2.31-1.98-.55-.86-.82-1.84-.82-2.96v-.03c0-1.16.27-2.17.82-3.04.55-.87,1.32-1.53,2.31-2,.99-.46,2.12-.7,3.39-.7h2.15v11.4Z"/>
  <path class="cls-1" d="M23.86,181.96c-.37.33-.55.75-.55,1.28,0,.46.18.87.55,1.2.37.34.81.51,1.31.51s.94-.16,1.3-.49c.36-.33.55-.74.57-1.25,0-.49-.18-.9-.54-1.24-.36-.34-.8-.51-1.33-.51s-.95.16-1.31.49Z"/>
  <path class="cls-1" d="M19.85,181.47c-.53,0-.97.16-1.31.49s-.52.75-.52,1.28c0,.46.18.87.55,1.2.37.34.81.51,1.31.51s.91-.16,1.27-.49c.36-.33.55-.74.57-1.25,0-.49-.18-.9-.55-1.24-.37-.34-.81-.51-1.31-.51Z"/>
  <path class="cls-1" d="M71.18,182.56c-.37.33-.55.76-.55,1.28,0,.46.18.87.55,1.2.37.34.81.51,1.31.51s.94-.16,1.3-.49c.36-.33.55-.74.57-1.25,0-.49-.18-.9-.54-1.24s-.8-.51-1.33-.51-.95.16-1.31.49Z"/>
  <path class="cls-1" d="M65.86,182.56c-.35.33-.52.76-.52,1.28,0,.46.18.87.55,1.2.37.34.81.51,1.31.51s.91-.16,1.27-.49.55-.74.57-1.25c0-.49-.18-.9-.55-1.24s-.81-.51-1.31-.51-.97.16-1.31.49Z"/>
  <path class="cls-1" d="M81.23,210.89c-.53,0-.97.17-1.33.51s-.54.76-.54,1.27.18.92.55,1.25c.37.33.82.49,1.35.49.46,0,.88-.16,1.25-.48s.55-.74.55-1.27-.18-.93-.54-1.27-.79-.51-1.3-.51Z"/>
  <path class="cls-1" d="M101.79,192.78c-1.31-.8-2.83-1.2-4.56-1.2h-.03c-1.73,0-3.26.4-4.58,1.19-1.32.79-2.35,1.91-3.09,3.36-.74,1.45-1.11,3.12-1.11,5.02,0,1,.11,1.92.33,2.79h-6v-14.51h-3.1v14.51h-8.27v-14.51h-3.1v14.51h-8.3v-4.88c0-2.72-.66-4.75-2-6.08-1.33-1.33-3.33-2-5.99-2h-5.95l5.23-9.63h-3.77l-4.97,9.63c.04.59.16,1.16.35,1.71.19.55.43,1.01.73,1.39h8.74c1.44,0,2.54.37,3.33,1.12.78.75,1.17,1.87,1.17,3.37v5.35h-19.22v-14.51h-3.1v18.24c0,1.25-.26,2.14-.78,2.68-.52.54-1.27.81-2.26.81-.4,0-.8-.01-1.19-.03-.39-.02-.81-.06-1.25-.13l.25,2.72c.82.19,1.65.28,2.47.28,1.37,0,2.48-.21,3.31-.62.83-.41,1.47-1.12,1.9-2.12s.65-2.36.65-4.07v-.16h52.52c.66.93,1.49,1.7,2.48,2.28,1.32.78,2.85,1.17,4.58,1.17h.03c1.73,0,3.25-.39,4.56-1.17,1.31-.78,2.33-1.88,3.06-3.29.73-1.41,1.09-3.04,1.09-4.88s-.36-3.57-1.09-5-1.75-2.55-3.06-3.36ZM102.77,201.08c0,1.25-.23,2.34-.68,3.28-.45.94-1.1,1.67-1.95,2.2-.84.53-1.82.79-2.91.79h-.03c-1.12,0-2.1-.26-2.95-.79-.84-.53-1.51-1.26-1.98-2.2-.48-.94-.71-2.03-.71-3.28v-.03c0-1.27.24-2.38.71-3.34.47-.96,1.14-1.7,2-2.22.86-.52,1.83-.78,2.93-.78h.03c1.12,0,2.1.26,2.93.78.83.52,1.48,1.26,1.93,2.22.45.96.68,2.07.68,3.34v.03Z"/>
  <path class="cls-1" d="M128.42,184.46c.36-.33.55-.74.57-1.25,0-.49-.18-.9-.54-1.24-.36-.34-.8-.51-1.33-.51s-.95.16-1.31.49c-.37.33-.55.75-.55,1.28,0,.46.18.87.55,1.2.37.34.81.51,1.31.51s.94-.16,1.3-.49Z"/>
  <path class="cls-1" d="M123.1,184.46c.36-.33.55-.74.57-1.25,0-.49-.18-.9-.55-1.24-.37-.34-.81-.51-1.31-.51s-.97.16-1.31.49-.52.75-.52,1.28c0,.46.18.87.55,1.2.37.34.81.51,1.31.51s.91-.16,1.27-.49Z"/>
  <path class="cls-1" d="M136.69,210.93c-.53,0-.97.16-1.31.49-.35.33-.52.74-.52,1.25s.18.92.55,1.25c.37.33.81.49,1.31.49s.91-.16,1.27-.49c.36-.33.55-.76.57-1.28,0-.46-.19-.87-.55-1.2-.37-.34-.81-.51-1.31-.51Z"/>
  <path class="cls-1" d="M142.01,210.93c-.51,0-.94.16-1.31.49-.37.33-.55.74-.55,1.25s.18.92.55,1.25c.37.33.81.49,1.31.49s.94-.16,1.3-.48.55-.75.57-1.3c0-.46-.18-.87-.54-1.2-.36-.34-.8-.51-1.33-.51Z"/>
  <path class="cls-1" d="M150.66,185.37c.49,0,.91-.16,1.27-.49.36-.33.54-.75.54-1.28s-.18-.92-.54-1.25c-.36-.33-.78-.49-1.27-.49-.55,0-1,.17-1.36.51-.36.34-.54.75-.54,1.24,0,.53.18.96.55,1.28.37.33.82.49,1.35.49Z"/>
  <path class="cls-1" d="M172.29,185.07c.36-.33.55-.74.57-1.25,0-.49-.18-.9-.54-1.24-.36-.34-.8-.51-1.33-.51s-.94.16-1.31.49c-.37.33-.55.76-.55,1.28,0,.46.18.87.55,1.2.37.34.81.51,1.31.51s.94-.16,1.3-.49Z"/>
  <path class="cls-1" d="M166.97,185.07c.36-.33.55-.74.57-1.25,0-.49-.19-.9-.55-1.24-.37-.34-.81-.51-1.31-.51s-.97.16-1.32.49c-.35.33-.52.76-.52,1.28,0,.46.18.87.55,1.2.37.34.81.51,1.31.51s.91-.16,1.27-.49Z"/>
  <path class="cls-1" d="M182.2,203.93h-9.37v-14.51h-4.59c-2.03,0-3.81.36-5.34,1.09-1.53.73-2.72,1.76-3.56,3.1-.84,1.34-1.27,2.89-1.27,4.64v.03c0,1.73.41,3.26,1.22,4.58.23.38.5.73.79,1.06h-7.9v-14.51h-3.1v14.51h-8.27v-14.51h-3.1v14.51h-8.27v-16.12h-3.1v1.62h-1.49c-2.01,0-3.78.36-5.32,1.09-1.54.73-2.73,1.76-3.58,3.1-.84,1.34-1.27,2.89-1.27,4.64v.03c0,1.73.41,3.26,1.22,4.58s1.96,2.34,3.44,3.07c1.48.73,3.19,1.09,5.13,1.09h60.84v-17.61h-3.1v14.51ZM126.33,203.93h-2.15c-1.27,0-2.4-.23-3.39-.7-.99-.46-1.76-1.12-2.31-1.98-.55-.86-.82-1.84-.82-2.96v-.03c0-1.16.27-2.17.82-3.04.55-.87,1.32-1.53,2.31-2,.99-.46,2.12-.7,3.39-.7h2.15v11.4ZM169.69,203.93h-2.12c-1.27,0-2.4-.23-3.39-.7-.99-.46-1.77-1.12-2.33-1.98s-.84-1.84-.84-2.96v-.03c0-1.16.28-2.17.84-3.04s1.33-1.53,2.31-2c.98-.46,2.12-.7,3.4-.7h2.12v11.4Z"/>
  <path class="cls-1" d="M186.38,182.07c-.51,0-.95.16-1.31.49-.37.33-.55.76-.55,1.28,0,.46.18.87.55,1.2.37.34.81.51,1.31.51s.94-.16,1.3-.49.55-.74.57-1.25c0-.49-.18-.9-.54-1.24-.36-.34-.8-.51-1.33-.51Z"/>
  <path class="cls-1" d="M182.36,185.07c.36-.33.55-.74.57-1.25,0-.49-.19-.9-.55-1.24-.37-.34-.81-.51-1.31-.51s-.97.16-1.32.49c-.35.33-.52.76-.52,1.28,0,.46.18.87.55,1.2.37.34.81.51,1.31.51s.91-.16,1.27-.49Z"/>
  <path class="cls-1" d="M208.3,207.89h-3.55c-2.13,0-3.79-.49-4.97-1.46-1.18-.97-1.77-2.5-1.77-4.59v-10.26h-3.14v10.61c0,1.92.36,3.53,1.08,4.83s1.78,2.29,3.18,2.96c1.4.68,3.12,1.01,5.15,1.01h7.13v-29.65h-3.1v26.54Z"/>
  <path class="cls-1" d="M259.74,193.32c-.65-1.41-1.62-2.5-2.88-3.26-1.27-.76-2.81-1.14-4.62-1.14-1.06,0-2.1.15-3.12.46s-2.12.77-3.28,1.38l1.11,2.85c.99-.57,1.86-.97,2.61-1.19.75-.22,1.58-.33,2.49-.33,1.16,0,2.17.25,3.04.74.87.5,1.53,1.2,2,2.12.46.92.7,2.02.7,3.31,0,.8-.07,1.72-.21,2.76-.14,1.03-.32,2.01-.55,2.91h-16.53v-22.58h-3.1v22.58h-6.81v-14.51h-4.59c-2.03,0-3.81.37-5.34,1.11s-2.72,1.77-3.56,3.1c-.84,1.33-1.27,2.87-1.27,4.62v.06c0,1.71.41,3.23,1.22,4.54s1.96,2.34,3.44,3.07c1.48.73,3.18,1.09,5.1,1.09h1.87v.32c0,.82-.17,1.5-.51,2.03-.34.53-.81.91-1.43,1.16s-1.35.36-2.22.36-1.77-.08-2.64-.25-1.82-.43-2.83-.79l.6,3.33c.89.3,1.73.51,2.52.63s1.62.19,2.49.19c1.6,0,2.93-.23,3.99-.7,1.06-.46,1.85-1.23,2.38-2.3.49-1,.75-2.33.78-3.97h28.83c.38-1.33.7-2.77.95-4.31s.38-2.99.38-4.34c0-1.96-.33-3.65-.98-5.07ZM227.43,203.93h-2.09c-1.27,0-2.4-.23-3.39-.7-.99-.46-1.77-1.12-2.34-1.98-.57-.86-.86-1.83-.86-2.93v-.06c0-1.16.28-2.18.84-3.06s1.33-1.55,2.31-2.01c.98-.46,2.13-.7,3.44-.7h2.09v11.43Z"/>
  <path class="cls-1" d="M18.95,80.32c1.7,1.81,3.96,3.26,6.78,4.35,2.83,1.08,6.31,1.62,10.46,1.62,4.99,0,9.27-.91,12.83-2.72,3.56-1.81,6.3-4.41,8.23-7.77,1.93-3.37,2.9-7.38,2.9-12.05,0-1.32-.12-3.04-.35-5.16-.24-2.12-.77-4.58-1.59-7.38-.82-2.8-2.18-5.88-4.06-9.22l-8.83,10.74c1.27,2.59,2.24,4.82,2.9,6.68.66,1.86,1.12,3.43,1.38,4.7.26,1.27.39,2.36.39,3.25,0,1.27-.38,2.39-1.13,3.36-.75.96-1.73,1.79-2.93,2.47-1.2.68-2.51,1.19-3.92,1.52-1.41.33-2.78.49-4.1.49-2.64,0-4.92-.38-6.85-1.13-1.93-.75-3.42-1.9-4.45-3.43-1.04-1.53-1.55-3.43-1.55-5.69,0-1.22.15-2.66.46-4.31.31-1.65.84-3.65,1.59-6.01l-9.4-2.97c-1.23,2.92-2.12,5.81-2.69,8.66-.57,2.85-.85,5.38-.85,7.6s.38,4.26,1.13,6.43c.75,2.17,1.98,4.16,3.67,5.97Z"/>
  <polygon class="cls-1" points="43.82 36.89 36.4 29.33 29.26 36.89 36.75 44.38 43.82 36.89"/>
  <path class="cls-1" d="M83.78,71.66c-1.77.85-4.06,1.27-6.89,1.27-1.46,0-2.96-.12-4.49-.35-1.53-.24-3.05-.57-4.56-.99l-3.53,7.28c2.26,2.12,4.7,3.58,7.31,4.38,2.61.8,5.15,1.2,7.6,1.2,2.83,0,5.32-.49,7.49-1.48,2.17-.99,4.04-2.3,5.62-3.92,1.58-1.62,2.87-3.38,3.89-5.26,1.01-1.88,1.8-3.74,2.37-5.58h24.8c1.74-5.04,2.61-9.55,2.61-13.53s-.52-7.57-1.55-10.78c-1.04-3.2-2.26-6.15-3.67-8.83l-10.18,10.39c1.65,2.07,3.01,4.12,4.1,6.15,1.08,2.03,1.81,3.86,2.19,5.51h-17.31c-.05-.8-.13-1.57-.25-2.3-.12-.73-.22-1.42-.32-2.08-.57-2.97-1.51-5.63-2.83-7.98-1.32-2.36-3.03-4.22-5.12-5.58-2.1-1.37-4.68-2.05-7.74-2.05-2.12,0-4.11.47-5.97,1.41-1.86.94-3.51,2.25-4.95,3.92-1.44,1.67-2.57,3.64-3.39,5.9-.82,2.26-1.24,4.71-1.24,7.35,0,1.88.29,3.59.88,5.12.59,1.53,1.54,2.85,2.86,3.96,1.32,1.11,3.04,1.96,5.16,2.54,2.12.59,4.73.88,7.84.88h3.32c-.94,1.46-2.3,2.61-4.06,3.46ZM83.89,57.1c-1.46,0-2.6-.14-3.43-.42-.82-.28-1.4-.67-1.73-1.17-.33-.49-.49-1.05-.49-1.66,0-1.13.21-2.13.64-3,.42-.87.96-1.54,1.62-2.01.66-.47,1.34-.71,2.05-.71.89,0,1.74.27,2.54.81.8.54,1.53,1.32,2.19,2.33.66,1.01,1.15,2.2,1.48,3.57.09.33.16.68.21,1.06.05.38.09.78.14,1.2h-5.23Z"/>
  <polygon class="cls-1" points="122.96 13.29 115.54 5.73 108.4 13.29 115.97 20.78 122.96 13.29"/>
  <polygon class="cls-1" points="115.92 26.06 122.32 32.58 129.39 25.02 121.97 17.53 115.87 24 109.46 17.53 102.47 25.02 109.89 32.58 115.92 26.06"/>
  <path class="cls-1" d="M138.26,65.27c1.11,1.01,2.51,1.76,4.2,2.23s3.72.71,6.08.71h37.87c1.04-5.61,1.14-10.66.32-15.16-.82-4.5-2.71-8.33-5.65-11.48-2.5-2.68-5.87-4.75-10.11-6.24l15.24-12.62-7.49-8.9-19.78,16.46v12.86c3.39.52,6.3,1.47,8.73,2.86,2.43,1.39,4.39,3.05,5.9,4.98,1.51,1.93,2.54,3.98,3.11,6.15h-25.01c-1.13,0-2.04-.09-2.72-.28-.68-.19-1.21-.51-1.59-.95-.38-.45-.64-1.04-.78-1.77-.14-.73-.21-1.61-.21-2.65V15.91h-11.38v39.64c0,2.26.27,4.19.81,5.79.54,1.6,1.37,2.91,2.47,3.92Z"/>
  <path class="cls-1" d="M197.54,65.27c1.11,1.01,2.51,1.76,4.2,2.23s3.72.71,6.08.71h8.34c2.78,0,5.42-.13,7.91-.39,2.5-.26,4.71-.67,6.64-1.24,1.79.56,3.77.98,5.94,1.24,2.17.26,4.47.39,6.92.39h13.14c1.18-7.82,1.21-14.39.11-19.71-1.11-5.32-3.26-9.59-6.47-12.79-3.2-3.2-7.33-5.46-12.37-6.78-5.04-1.32-10.88-1.88-17.52-1.7l-.78,11.09c4.33-.33,8.16-.21,11.48.35,3.32.57,6.15,1.6,8.48,3.11,2.33,1.51,4.14,3.53,5.44,6.08s2.08,5.63,2.37,9.26h-2.08c-.4,0-.93.01-1.59.04-.66.02-1.51.04-2.54.04.09-.42.19-.99.28-1.7.09-.71.14-1.44.14-2.19,0-1.93-.44-3.69-1.31-5.26-.87-1.58-2.13-2.83-3.78-3.74-1.65-.92-3.7-1.38-6.15-1.38s-4.44.46-6.11,1.38c-1.67.92-2.94,2.17-3.82,3.74-.87,1.58-1.31,3.33-1.31,5.26,0,.75.06,1.48.18,2.19.12.71.2,1.27.25,1.7-.52,0-.97-.01-1.34-.04-.38-.02-.73-.04-1.06-.04h-6.29c-1.13,0-2.04-.09-2.72-.28-.68-.19-1.21-.51-1.59-.95-.38-.45-.64-1.04-.78-1.77-.14-.73-.21-1.61-.21-2.65V15.91h-11.38v39.64c0,2.26.27,4.19.81,5.79.54,1.6,1.37,2.91,2.47,3.92ZM229.02,51.91c.42-.49.89-.74,1.41-.74.57,0,1.04.25,1.41.74.38.49.57,1.14.57,1.94,0,.94-.17,1.76-.49,2.44-.33.68-.82,1.21-1.48,1.59-.71-.38-1.23-.91-1.55-1.59-.33-.68-.49-1.49-.49-2.44,0-.8.21-1.45.64-1.94Z"/>
  <path class="cls-1" d="M17.14,138.51c1.11,1.01,2.51,1.76,4.2,2.23s3.72.71,6.08.71h26.22c1.74-5.04,2.61-9.55,2.61-13.53s-.52-7.57-1.55-10.78c-1.04-3.2-2.26-6.15-3.67-8.83l-10.18,10.39c1.65,2.07,3.01,4.12,4.1,6.15,1.08,2.03,1.81,3.86,2.19,5.51h-16.61c-1.13,0-2.04-.09-2.72-.28-.68-.19-1.21-.51-1.59-.95-.38-.45-.64-1.04-.78-1.77-.14-.73-.21-1.61-.21-2.65v-30.73l-11.38-5.17v40c0,2.26.27,4.19.81,5.79.54,1.6,1.37,2.91,2.47,3.92Z"/>
  <path class="cls-1" d="M63.36,158.89c1.77.42,3.4.64,4.91.64,3.2,0,5.99-.54,8.37-1.63,2.38-1.08,4.37-2.51,5.97-4.28,1.6-1.77,2.88-3.7,3.85-5.79.97-2.1,1.66-4.21,2.08-6.33.42-2.12.64-4.05.64-5.79,0-2.5-.37-5.03-1.1-7.6-.73-2.57-1.87-5.31-3.43-8.23-1.55-2.92-3.58-6.1-6.08-9.54l-9.04,11.09c2.45,2.87,4.37,5.19,5.76,6.96,1.39,1.77,2.38,3.25,2.97,4.45.59,1.2.88,2.42.88,3.64,0,2.5-.53,4.64-1.59,6.43-1.06,1.79-2.56,3.15-4.49,4.1-1.93.94-4.24,1.41-6.92,1.41-.71,0-1.45-.04-2.23-.11-.78-.07-1.61-.2-2.51-.39l-3.25,8.97c1.7.89,3.43,1.55,5.19,1.98Z"/>
  <path class="cls-1" d="M226.23,137.56c.36.22.7.43,1.1.66,1.51.87,3.38,1.63,5.62,2.26s4.98.95,8.23.95h12.22c1.37-3.86,2.21-7.4,2.54-10.6.33-3.2.29-6.13-.11-8.8-.4-2.66-1.05-5.13-1.94-7.42-.9-2.28-1.88-4.42-2.97-6.39l-10.18,10.32c1.37,1.74,2.58,3.62,3.64,5.62,1.06,2,1.87,4.06,2.44,6.18h-8.69c-1.79,0-3.43-.13-4.91-.39-1.08-.19-2-.41-2.74-.66.62-1.59,1.2-3.35,1.72-5.31.61-2.31,1.27-5.11,1.98-8.41l-13.5,4.59c.14,1.37.21,2.7.21,3.99s-.04,2.47-.11,3.53c-.07,1.06-.18,1.94-.32,2.65h-8.55c-.69,0-1.34-.06-1.99-.1.02-.04.03-.07.05-.11.73-1.79,1.4-3.84,2.01-6.15.61-2.31,1.25-5.11,1.91-8.41l-13.36,4.59c.14,1.37.21,2.64.21,3.81s-.04,2.29-.11,3.32c-.07,1.04-.18,2.05-.32,3.04h-6.78s0,0,0,0h0s-4.95,0-4.95,0h-23.32s0,0,0,0h0s-4.95,0-4.95,0h-17.66s0,0,0,0h0s-4.95,0-4.95,0h-9.82c-.05-.8-.13-1.57-.25-2.3-.12-.73-.22-1.42-.32-2.08-.57-2.97-1.51-5.63-2.83-7.98-1.32-2.36-3.03-4.22-5.12-5.58-2.1-1.36-4.68-2.05-7.74-2.05-2.12,0-4.11.47-5.97,1.41-1.86.94-3.51,2.25-4.95,3.92-1.44,1.67-2.57,3.64-3.39,5.9-.82,2.26-1.24,4.71-1.24,7.35,0,1.88.29,3.59.88,5.12.59,1.53,1.54,2.85,2.86,3.96,1.32,1.11,3.04,1.96,5.16,2.54,2.12.59,4.73.88,7.84.88h3.32c-.94,1.46-2.3,2.62-4.06,3.46s-4.06,1.27-6.89,1.27c-1.46,0-2.96-.12-4.49-.35-1.53-.24-3.05-.56-4.56-.99l-3.53,7.28c2.26,2.12,4.7,3.58,7.31,4.38,2.61.8,5.15,1.2,7.6,1.2,2.83,0,5.32-.49,7.49-1.48,2.17-.99,4.04-2.3,5.62-3.92,1.58-1.63,2.87-3.38,3.89-5.26,1.01-1.88,1.8-3.74,2.37-5.58h15.76s0,0,0,0h22.61s0,0,0,0h28.26s0,0,0,0h10.03c.34-.52.67-1.02.99-1.5.6.19,1.23.38,1.91.55,2.45.64,5.44.95,8.97.95h8.34c.9-1.39,1.7-2.68,2.43-3.87ZM112.22,130.35c-1.46,0-2.6-.14-3.43-.42-.82-.28-1.4-.67-1.73-1.17-.33-.49-.49-1.05-.49-1.66,0-1.13.21-2.13.64-3,.42-.87.96-1.54,1.62-2.01.66-.47,1.34-.71,2.05-.71.89,0,1.74.27,2.54.81.8.54,1.53,1.32,2.19,2.33.66,1.01,1.15,2.2,1.48,3.57.09.33.16.68.21,1.06.05.38.09.78.14,1.2h-5.23Z"/>
  <polygon class="cls-1" points="40.65 151.86 34.25 145.4 27.25 152.89 34.67 160.45 40.7 153.92 47.11 160.45 54.17 152.89 46.75 145.4 40.65 151.86"/>
</svg>